# xmcd
#
# Track frame offsets: 
#        150
#        36053
#        89423
#        115740
#        201770
#
# Disc length: 3135 seconds
#
# Revision: 3
# Processed by: cddbd v1.5.2PL0 Copyright (c) Steve Scherf et al.
# Submitted via: ExactAudioCopy v0.99pb4
#
DISCID=390c3d05
DTITLE=Paul Quinichette - On The Sunny Side
DYEAR=1957
DGENRE=Jazz
TTITLE0=Blue Dots
TTITLE1=Circles
TTITLE2=On The Sunny Side Of The Street
TTITLE3=Cool-Lypso
TTITLE4=My Funny Valentine
EXTD=YEAR: 1957
EXTT0=
EXTT1=
EXTT2=
EXTT3=
EXTT4=
PLAYORDER=
